<?xml version="1.0" standalone="no"?>
<!DOCTYPE svg PUBLIC "-//W3C//DTD SVG 20010904//EN"
 "http://www.w3.org/TR/2001/REC-SVG-20010904/DTD/svg10.dtd">
<svg version="1.0" xmlns="http://www.w3.org/2000/svg"
 width="122.000000pt" height="166.000000pt" viewBox="0 0 122.000000 166.000000"
 preserveAspectRatio="xMidYMid meet">

<g transform="translate(0.000000,166.000000) scale(0.100000,-0.100000)"
fill="#000000" stroke="none">
<path d="M342 1513 c-102 -36 -182 -175 -182 -317 0 -29 -8 -67 -20 -91 -36
-74 -6 -220 85 -405 46 -95 55 -130 33 -130 -7 0 -34 7 -60 15 -47 14 -48 13
-67 -12 -22 -27 -35 -77 -29 -113 3 -25 30 -43 120 -80 32 -13 58 -28 58 -34
0 -6 -7 -33 -15 -60 -8 -26 -12 -53 -9 -58 9 -14 103 -55 165 -71 31 -8 80
-14 109 -13 44 2 56 6 77 31 l25 28 33 -19 c18 -10 60 -40 94 -66 54 -43 61
-52 61 -83 l0 -35 96 0 96 0 -8 83 c-5 45 -8 171 -6 280 l3 197 -26 0 c-15 0
-35 -4 -45 -10 -24 -13 -40 -88 -40 -185 0 -41 -3 -75 -6 -75 -3 0 -26 14 -50
31 -48 33 -183 98 -246 118 -57 19 -64 34 -35 73 44 58 70 160 70 273 -1 115
-10 159 -60 295 l-36 99 -61 22 c-123 44 -177 101 -179 186 0 39 4 50 28 70
24 21 36 24 84 21 31 -2 64 -8 74 -12 14 -7 17 -3 17 28 l0 36 -52 -1 c-29 0
-72 -7 -96 -16z"/>
<path d="M545 1519 c-3 -8 -15 -45 -28 -84 -17 -52 -27 -70 -40 -69 -24 2 -21
-18 10 -69 l26 -44 136 -6 c138 -6 203 -20 320 -66 30 -12 63 -21 74 -19 15 2
8 11 -34 40 -102 70 -350 168 -426 168 -24 0 -43 2 -43 5 0 3 7 35 16 71 12
48 14 68 6 76 -8 8 -13 8 -17 -3z"/>
<path d="M353 1454 c-14 -6 -17 -32 -7 -58 8 -21 48 -21 69 0 14 14 14 19 2
38 -14 21 -41 29 -64 20z m43 -29 c3 -8 3 -19 -1 -25 -10 -16 -45 7 -39 25 8
19 33 19 40 0z"/>
<path d="M370 1345 c-20 -24 -3 -57 28 -53 33 4 42 36 16 55 -23 17 -29 16
-44 -2z"/>
</g>
</svg>
